<svg xmlns="http://www.w3.org/2000/svg" viewBox="0 0 18 17" fill="none">
  <path d="M14.1978 9.97698C15.9272 9.97698 17.333 11.3647 17.333 13.0718C17.333 14.7779 15.9272 16.1666 14.1978 16.1666C12.4684 16.1666 11.0626 14.7779 11.0626 13.0718C11.0626 11.3647 12.4684 9.97698 14.1978 9.97698ZM14.1978 11.4286C13.2792 11.4286 12.5331 12.165 12.5331 13.0718C12.5331 13.9776 13.2792 14.715 14.1978 14.715C15.1164 14.715 15.8625 13.9776 15.8625 13.0718C15.8625 12.165 15.1164 11.4286 14.1978 11.4286ZM7.43095 12.3457C7.83682 12.3457 8.16623 12.6709 8.16623 13.0715C8.16623 13.4721 7.83682 13.7973 7.43095 13.7973H1.40262C0.996749 13.7973 0.667343 13.4721 0.667343 13.0715C0.667343 12.6709 0.996749 12.3457 1.40262 12.3457H7.43095ZM3.8019 0.333252C5.53128 0.333252 6.93713 1.72195 6.93713 3.42805C6.93713 5.13416 5.53128 6.52286 3.8019 6.52286C2.07349 6.52286 0.666656 5.13416 0.666656 3.42805C0.666656 1.72195 2.07349 0.333252 3.8019 0.333252ZM3.8019 1.78485C2.88426 1.78485 2.13722 2.52226 2.13722 3.42805C2.13722 4.33385 2.88426 5.07126 3.8019 5.07126C4.72051 5.07126 5.46657 4.33385 5.46657 3.42805C5.46657 2.52226 4.72051 1.78485 3.8019 1.78485ZM16.598 2.70245C17.0039 2.70245 17.3333 3.02761 17.3333 3.42825C17.3333 3.82889 17.0039 4.15405 16.598 4.15405H10.5687C10.1629 4.15405 9.83346 3.82889 9.83346 3.42825C9.83346 3.02761 10.1629 2.70245 10.5687 2.70245H16.598Z"/>
</svg>