<svg viewBox="0 0 20 20" fill="none" xmlns="http://www.w3.org/2000/svg">
<path d="M7.73 0.788233C9 -0.220767 10.78 -0.260768 12.089 0.668233L12.25 0.788233L18.339 5.65923C19.009 6.17823 19.42 6.94923 19.49 7.78823L19.5 7.98923V16.0982C19.5 18.1882 17.849 19.8882 15.78 19.9982H13.79C12.839 19.9792 12.07 19.2392 12 18.3092L11.99 18.1682V15.3092C11.99 14.9982 11.759 14.7392 11.45 14.6882L11.36 14.6782H8.689C8.37 14.6882 8.11 14.9182 8.07 15.2182L8.06 15.3092V18.1592C8.06 18.2182 8.049 18.2882 8.04 18.3382L8.03 18.3592L8.019 18.4282C7.9 19.2792 7.2 19.9282 6.33 19.9892L6.2 19.9982H4.41C2.32 19.9982 0.61 18.3592 0.5 16.2982V7.98923C0.509 7.13823 0.88 6.34823 1.5 5.79823L7.73 0.788233ZM11.38 1.87823C10.62 1.26823 9.54 1.23923 8.74 1.76823L8.589 1.87823L2.509 6.77923C2.16 7.03823 1.95 7.42823 1.9 7.83823L1.889 7.99823V16.0982C1.889 17.4282 2.929 18.5182 4.25 18.5982H6.2C6.42 18.5982 6.61 18.4492 6.639 18.2392L6.66 18.0592L6.67 18.0082V15.3092C6.67 14.2392 7.49 13.3692 8.54 13.2882H11.36C12.429 13.2882 13.299 14.1092 13.38 15.1592V18.1682C13.38 18.3782 13.53 18.5592 13.73 18.5982H15.589C16.929 18.5982 18.019 17.5692 18.099 16.2582L18.11 16.0982V7.99823C18.099 7.56923 17.92 7.16823 17.61 6.86923L17.48 6.75823L11.38 1.87823Z"/>
</svg>
