<svg viewBox="0 0 21 21" fill="none" xmlns="http://www.w3.org/2000/svg">
<path d="M9.33146 0.0214844C11.7107 0.0214844 13.6526 1.89542 13.7616 4.24772L13.7665 4.45648V5.38948C13.7665 5.8037 13.4307 6.13948 13.0165 6.13948C12.6368 6.13948 12.323 5.85733 12.2733 5.49125L12.2665 5.38948V4.45648C12.2665 2.89358 11.0444 1.61575 9.5039 1.52647L9.33146 1.52148H4.45646C2.89441 1.52148 1.61671 2.74362 1.52744 4.28406L1.52246 4.45648V15.5865C1.52246 17.1493 2.74436 18.4272 4.28412 18.5165L4.45646 18.5215H9.34146C10.8988 18.5215 12.1725 17.3039 12.2615 15.7693L12.2665 15.5975V14.6545C12.2665 14.2403 12.6022 13.9045 13.0165 13.9045C13.3962 13.9045 13.71 14.1866 13.7596 14.5527L13.7665 14.6545V15.5975C13.7665 17.9687 11.8997 19.9046 9.55581 20.0164L9.34146 20.0215H4.45646C2.07802 20.0215 0.136302 18.1474 0.0272881 15.7952L0.0224609 15.5865V4.45648C0.0224609 2.07743 1.89622 0.135347 4.24777 0.0263125L4.45646 0.0214844H9.33146ZM17.3265 6.50234L17.4108 6.57478L20.3388 9.48978C20.3652 9.51594 20.3883 9.54256 20.4095 9.57073L20.3388 9.48978C20.3694 9.52019 20.3967 9.55258 20.421 9.58653C20.4381 9.61028 20.4538 9.63538 20.4681 9.66142C20.4707 9.66648 20.4733 9.67145 20.4759 9.67645C20.4886 9.70042 20.4998 9.72529 20.5097 9.75084C20.5137 9.76202 20.5178 9.77334 20.5216 9.78473C20.5289 9.80575 20.535 9.8274 20.5402 9.84942C20.5426 9.86118 20.545 9.87286 20.5472 9.88457C20.5513 9.90501 20.5543 9.9261 20.5564 9.94745C20.5575 9.96231 20.5585 9.97701 20.5591 9.99174C20.5598 10.0016 20.56 10.0115 20.56 10.0214L20.5591 10.0497C20.5585 10.0651 20.5575 10.0805 20.556 10.0958L20.56 10.0214C20.56 10.0682 20.5557 10.1141 20.5475 10.1585C20.545 10.1696 20.5426 10.1814 20.5398 10.193C20.5348 10.2162 20.5284 10.2387 20.521 10.2607C20.5172 10.2709 20.5135 10.2813 20.5095 10.2915C20.5002 10.3164 20.4894 10.3405 20.4774 10.3639C20.4744 10.3692 20.4712 10.3751 20.468 10.381C20.4336 10.4443 20.3905 10.5015 20.3403 10.5517L20.3389 10.5527L17.4109 13.4687C17.1174 13.761 16.6425 13.76 16.3502 13.4665C16.0845 13.1997 16.0612 12.783 16.2796 12.4898L16.3524 12.4059L17.9915 10.7705L7.76896 10.7714C7.35475 10.7714 7.01896 10.4356 7.01896 10.0214C7.01896 9.64169 7.30112 9.32789 7.66719 9.27823L7.76896 9.27139L17.9935 9.27048L16.3525 7.63779C16.0857 7.37212 16.0605 6.95551 16.2777 6.66142L16.3502 6.57714C16.6158 6.31028 17.0324 6.28514 17.3265 6.50234Z"/>
</svg>
