<svg viewBox="0 0 34 32" fill="none" xmlns="http://www.w3.org/2000/svg">
<path d="M28.6663 0.333374H5.33301C2.57634 0.333374 0.333008 2.57671 0.333008 5.33337V10.0517C0.333008 11.8067 0.969675 13.4017 1.99967 14.6284V30.3334C1.99967 30.7754 2.17527 31.1993 2.48783 31.5119C2.80039 31.8244 3.22431 32 3.66634 32H16.9997C17.4417 32 17.8656 31.8244 18.1782 31.5119C18.4907 31.1993 18.6663 30.7754 18.6663 30.3334V22H25.333V30.3334C25.333 30.7754 25.5086 31.1993 25.8212 31.5119C26.1337 31.8244 26.5576 32 26.9997 32H30.333C30.775 32 31.199 31.8244 31.5115 31.5119C31.8241 31.1993 31.9997 30.7754 31.9997 30.3334V14.6267C33.0297 13.4017 33.6663 11.8067 33.6663 10.05V5.33337C33.6663 2.57671 31.423 0.333374 28.6663 0.333374ZM30.333 5.33337V10.0517C30.333 11.9517 28.918 13.5717 27.1813 13.6634L26.9997 13.6667C25.1613 13.6667 23.6663 12.1717 23.6663 10.3334V3.66671H28.6663C29.5863 3.66671 30.333 4.41504 30.333 5.33337ZM13.6663 10.3334V3.66671H20.333V10.3334C20.333 12.1717 18.838 13.6667 16.9997 13.6667C15.1613 13.6667 13.6663 12.1717 13.6663 10.3334ZM3.66634 5.33337C3.66634 4.41504 4.41301 3.66671 5.33301 3.66671H10.333V10.3334C10.333 12.1717 8.83801 13.6667 6.99967 13.6667L6.81801 13.6617C5.08134 13.5717 3.66634 11.9517 3.66634 10.0517V5.33337ZM13.6663 23.6667H6.99967V18.6667H13.6663V23.6667Z" fill="url(#paint0_linear_192_1372)"/>
<defs>
<linearGradient id="paint0_linear_192_1372" x1="16.9997" y1="0.333374" x2="16.9997" y2="32" gradientUnits="userSpaceOnUse">
<stop stop-color="#EA9769"/>
<stop offset="1" stop-color="#EA6969"/>
</linearGradient>
</defs>
</svg>
