<svg viewBox="0 0 24 24" fill="none" xmlns="http://www.w3.org/2000/svg">
<path d="M9.59124 14.4565L9.91103 14.4579C14.5555 14.4983 17.1832 15.4363 17.1832 17.9985C17.1832 20.5064 14.6648 21.4738 10.2234 21.5549L9.59124 21.5605C4.74691 21.5605 2.00024 20.6396 2.00024 18.0185C2.00024 15.3939 4.75784 14.4565 9.59124 14.4565ZM9.59124 15.9565C5.57389 15.9565 3.50024 16.6614 3.50024 18.0185C3.50024 19.3669 5.56892 20.0605 9.59124 20.0605C13.6089 20.0605 15.6832 19.3555 15.6832 17.9985C15.6832 16.6508 13.6127 15.9565 9.59124 15.9565ZM17.5869 13.7483C18.1675 13.7878 18.7447 13.871 19.2994 13.994C20.4874 14.2303 21.3707 14.6715 21.7754 15.5206C22.0743 16.1494 22.0743 16.8808 21.7755 17.5095C21.373 18.3565 20.4989 18.7945 19.3041 19.0402C18.8984 19.1237 18.5019 18.8624 18.4184 18.4567C18.335 18.051 18.5962 17.6544 19.0019 17.571C19.7708 17.4128 20.2825 17.1564 20.4207 16.8656C20.5258 16.6444 20.5258 16.3858 20.421 16.1653C20.2819 15.8734 19.7675 15.6165 18.9909 15.4619C18.4936 15.3518 17.9907 15.2793 17.4852 15.2449C17.0719 15.2168 16.7597 14.859 16.7878 14.4457C16.8159 14.0324 17.1737 13.7202 17.5869 13.7483ZM9.59124 2.5C12.4393 2.5 14.7262 4.78661 14.7262 7.634C14.7262 10.4822 12.4395 12.769 9.59124 12.769C6.74317 12.769 4.45724 10.4824 4.45724 7.634C4.45724 4.78647 6.74335 2.5 9.59124 2.5ZM16.0199 3.5696C18.2548 3.5696 20.0669 5.38208 20.0669 7.6166C20.0669 9.85181 18.2552 11.6636 16.0199 11.6636C15.6057 11.6636 15.2699 11.3278 15.2699 10.9136C15.2699 10.4994 15.6057 10.1636 16.0199 10.1636C17.4267 10.1636 18.5669 9.02339 18.5669 7.6166C18.5669 6.21043 17.4264 5.0696 16.0199 5.0696C15.6057 5.0696 15.2699 4.73381 15.2699 4.3196C15.2699 3.90539 15.6057 3.5696 16.0199 3.5696ZM9.59124 4C7.57183 4 5.95724 5.61484 5.95724 7.634C5.95724 9.65403 7.5717 11.269 9.59124 11.269C11.611 11.269 13.2262 9.65379 13.2262 7.634C13.2262 5.61509 11.6109 4 9.59124 4Z" fill="#EA7C69"/>
</svg>
