<svg width="16" height="16" viewBox="0 0 16 16" fill="none" xmlns="http://www.w3.org/2000/svg">
<g clip-path="url(#clip0_7003_2843)">
<path d="M7.88599 7.70726C8.94482 7.70726 9.86157 7.3275 10.6108 6.57823C11.3599 5.82909 11.7397 4.91247 11.7397 3.85351C11.7397 2.79492 11.36 1.87817 10.6107 1.12878C9.86145 0.37976 8.9447 0 7.88599 0C6.82703 0 5.9104 0.37976 5.16125 1.1289C4.41211 1.87805 4.03223 2.79479 4.03223 3.85351C4.03223 4.91247 4.41211 5.82921 5.16125 6.57836C5.91064 7.32738 6.82739 7.70726 7.88599 7.70726ZM5.82434 1.79187C6.39917 1.21704 7.07349 0.93762 7.88599 0.93762C8.69836 0.93762 9.3728 1.21704 9.94775 1.79187C10.5226 2.36682 10.8021 3.04125 10.8021 3.85351C10.8021 4.66601 10.5226 5.34032 9.94775 5.91527C9.3728 6.49022 8.69836 6.76964 7.88599 6.76964C7.07373 6.76964 6.39941 6.4901 5.82434 5.91527C5.24939 5.34044 4.96985 4.66601 4.96985 3.85351C4.96985 3.04125 5.24939 2.36682 5.82434 1.79187Z" fill="white"/>
<path d="M14.3165 12.5746C14.2949 12.2628 14.2512 11.9227 14.1869 11.5636C14.1219 11.2018 14.0383 10.8597 13.9382 10.5471C13.8347 10.224 13.6942 9.9049 13.5203 9.59912C13.34 9.28174 13.1281 9.00537 12.8903 8.77795C12.6416 8.54004 12.3372 8.34875 11.9851 8.20923C11.6343 8.07043 11.2455 8.00012 10.8296 8.00012C10.6663 8.00012 10.5083 8.06714 10.2032 8.26575C10.0155 8.38818 9.7959 8.52978 9.55078 8.6864C9.34119 8.81994 9.05725 8.94507 8.70654 9.05835C8.36438 9.16907 8.01697 9.22522 7.67395 9.22522C7.33118 9.22522 6.98376 9.16907 6.64136 9.05835C6.29102 8.94519 6.00696 8.82007 5.79773 8.68652C5.55493 8.53137 5.33521 8.38977 5.14465 8.26562C4.83984 8.06702 4.68188 8 4.51855 8C4.10254 8 3.71387 8.07043 3.36316 8.20935C3.01135 8.34863 2.70679 8.53992 2.45789 8.77807C2.22009 9.00561 2.00818 9.28186 1.828 9.59912C1.6543 9.9049 1.51367 10.2239 1.41016 10.5472C1.31018 10.8599 1.22656 11.2018 1.16162 11.5636C1.09717 11.9222 1.05359 12.2624 1.03198 12.5749C1.01074 12.8805 1 13.1985 1 13.5198C1 14.355 1.2655 15.0311 1.78906 15.5298C2.30615 16.0218 2.99023 16.2713 3.82239 16.2713H11.5265C12.3584 16.2713 13.0425 16.0218 13.5597 15.5298C14.0834 15.0315 14.3489 14.3551 14.3489 13.5196C14.3488 13.1973 14.3379 12.8793 14.3165 12.5746ZM12.9132 14.8505C12.5715 15.1756 12.1179 15.3337 11.5264 15.3337H3.82239C3.23071 15.3337 2.7771 15.1756 2.43555 14.8506C2.10046 14.5316 1.93762 14.0962 1.93762 13.5198C1.93762 13.22 1.94751 12.9239 1.96729 12.6398C1.98657 12.361 2.026 12.0547 2.08447 11.7292C2.14221 11.4078 2.2157 11.1062 2.3031 10.8331C2.38696 10.5713 2.50134 10.312 2.64319 10.0623C2.77856 9.82422 2.93433 9.61999 3.1062 9.45544C3.26697 9.30151 3.4696 9.17553 3.70837 9.08105C3.9292 8.99365 4.17737 8.9458 4.44678 8.9386C4.47961 8.95605 4.53809 8.98938 4.63281 9.05115C4.82556 9.17676 5.04773 9.32007 5.29333 9.47693C5.57019 9.65344 5.92688 9.81286 6.35303 9.95044C6.7887 10.0913 7.23303 10.1628 7.67407 10.1628C8.11511 10.1628 8.55957 10.0913 8.995 9.95056C9.42151 9.81274 9.77808 9.65344 10.0553 9.47668C10.3066 9.31604 10.5226 9.17688 10.7153 9.05115C10.8101 8.9895 10.8685 8.95605 10.9014 8.9386C11.1709 8.9458 11.4191 8.99365 11.64 9.08105C11.8787 9.17553 12.0813 9.30163 12.2421 9.45544C12.4139 9.61987 12.5697 9.82409 12.7051 10.0624C12.847 10.312 12.9615 10.5714 13.0453 10.833C13.1328 11.1064 13.2064 11.408 13.264 11.7291C13.3224 12.0552 13.3619 12.3616 13.3812 12.6399V12.6401C13.4011 12.9232 13.4111 13.2191 13.4113 13.5198C13.4111 14.0963 13.2483 14.5316 12.9132 14.8505Z" fill="white"/>
</g>
<defs>
<clipPath id="clip0_7003_2843">
<rect width="16" height="16" fill="white"/>
</clipPath>
</defs>
</svg>
